<svg width="960" height="540" viewBox="0 0 960 540" fill="none" xmlns="http://www.w3.org/2000/svg">
  <rect width="960" height="540" rx="44" fill="#07111F"/>
  <rect width="960" height="540" rx="44" fill="url(#bg)"/>
  <rect x="76" y="66" width="808" height="408" rx="34" fill="#0F172A" fill-opacity=".78" stroke="white" stroke-opacity=".14"/>
  <rect x="120" y="112" width="214" height="316" rx="24" fill="white" fill-opacity=".055" stroke="white" stroke-opacity=".1"/>
  <rect x="156" y="148" width="112" height="18" rx="9" fill="white" fill-opacity=".3"/>
  <rect x="156" y="206" width="132" height="34" rx="12" fill="#F9AB00" fill-opacity=".28"/>
  <rect x="156" y="262" width="96" height="34" rx="12" fill="#E37400" fill-opacity=".3"/>
  <rect x="156" y="318" width="158" height="34" rx="12" fill="#F9AB00" fill-opacity=".24"/>
  <rect x="382" y="112" width="458" height="316" rx="24" fill="white" fill-opacity=".055" stroke="white" stroke-opacity=".1"/>
  <path d="M438 166h338l-62 68H500l-62-68Z" fill="#3B82F6" fill-opacity=".9"/>
  <path d="M500 252h214l-46 58H546l-46-58Z" fill="#22D3EE" fill-opacity=".86"/>
  <path d="M546 328h122l-34 44h-54l-34-44Z" fill="#10B981" fill-opacity=".9"/>
  <circle cx="770" cy="338" r="42" fill="#10B981" fill-opacity=".18"/>
  <path d="M748 338h44M770 316v44" stroke="white" stroke-opacity=".48" stroke-width="10" stroke-linecap="round"/>
  <path d="M430 402h300" stroke="white" stroke-opacity=".14" stroke-width="12" stroke-linecap="round"/>
  <defs>
    <linearGradient id="bg" x1="28" y1="42" x2="902" y2="516" gradientUnits="userSpaceOnUse">
      <stop stop-color="#064E3B"/>
      <stop offset=".48" stop-color="#0F172A"/>
      <stop offset="1" stop-color="#1D4ED8"/>
    </linearGradient>
  </defs>
</svg>
